<svg width="18" height="20" viewBox="0 0 18 20" fill="none" xmlns="http://www.w3.org/2000/svg">
<path d="M16.2 9.19091V3.63636C16.2 3.15415 16.0104 2.69169 15.6728 2.35071C15.3352 2.00974 14.8774 1.81818 14.4 1.81818H10.638C10.26 0.763636 9.27 0 8.1 0C6.93 0 5.94 0.763636 5.562 1.81818H1.8C0.81 1.81818 0 2.63636 0 3.63636V16.3636C0 16.8458 0.189642 17.3083 0.527208 17.6493C0.864773 17.9903 1.32261 18.1818 1.8 18.1818H7.299C8.433 19.3091 9.981 20 11.7 20C15.183 20 18 17.1545 18 13.6364C18 11.9 17.316 10.3364 16.2 9.19091ZM8.1 1.81818C8.595 1.81818 9 2.22727 9 2.72727C9 3.22727 8.595 3.63636 8.1 3.63636C7.605 3.63636 7.2 3.22727 7.2 2.72727C7.2 2.22727 7.605 1.81818 8.1 1.81818ZM1.8 16.3636V3.63636H3.6V5.45455H12.6V3.63636H14.4V7.89091C13.581 7.5 12.672 7.27273 11.7 7.27273H3.6V9.09091H7.29C6.75 9.60909 6.336 10.2273 6.012 10.9091H3.6V12.7273H5.472C5.427 13.0273 5.4 13.3273 5.4 13.6364C5.4 14.6182 5.625 15.5364 6.012 16.3636H1.8ZM11.7 18.1818C9.216 18.1818 7.2 16.1455 7.2 13.6364C7.2 11.1273 9.216 9.09091 11.7 9.09091C14.184 9.09091 16.2 11.1273 16.2 13.6364C16.2 16.1455 14.184 18.1818 11.7 18.1818ZM12.15 13.8636L14.724 15.4L14.049 16.5091L10.8 14.5455V10H12.15V13.8636Z" fill="black"/>
</svg>
