<svg width="7" height="12" viewBox="0 0 7 12" fill="none" xmlns="http://www.w3.org/2000/svg">
<path d="M6.71049 11.2902C6.80319 11.1977 6.87674 11.0878 6.92692 10.9668C6.9771 10.8459 7.00293 10.7162 7.00293 10.5852C7.00293 10.4543 6.9771 10.3246 6.92692 10.2036C6.87674 10.0826 6.80319 9.97274 6.71049 9.88022L2.83049 6.00022L6.71049 2.12022C6.80307 2.02764 6.87651 1.91773 6.92661 1.79677C6.97672 1.6758 7.00251 1.54615 7.00251 1.41522C7.00251 1.28429 6.97672 1.15464 6.92661 1.03368C6.87651 0.912715 6.80307 0.802803 6.71049 0.710221C6.6179 0.61764 6.50799 0.544201 6.38703 0.494096C6.26607 0.443991 6.13642 0.418202 6.00549 0.418202C5.87456 0.418202 5.74491 0.443991 5.62394 0.494096C5.50298 0.544201 5.39307 0.617639 5.30049 0.710221L0.710486 5.30022C0.617783 5.39274 0.544235 5.50262 0.494053 5.6236C0.443872 5.74457 0.418042 5.87425 0.418042 6.00522C0.418042 6.13619 0.443872 6.26587 0.494053 6.38685C0.544235 6.50782 0.617783 6.61771 0.710486 6.71022L5.30049 11.3002C5.68049 11.6802 6.32049 11.6802 6.71049 11.2902Z" fill="#1B2B3A"/>
</svg>
