<svg width="14" height="16" viewBox="0 0 14 16" fill="none" xmlns="http://www.w3.org/2000/svg">
<path d="M4.66667 11.6C4.12222 11.6 3.66204 11.4067 3.28611 11.02C2.91018 10.6333 2.72222 10.16 2.72222 9.6C2.72222 9.04 2.91018 8.56667 3.28611 8.18C3.66204 7.79333 4.12222 7.6 4.66667 7.6C5.21111 7.6 5.6713 7.79333 6.04722 8.18C6.42315 8.56667 6.61111 9.04 6.61111 9.6C6.61111 10.16 6.42315 10.6333 6.04722 11.02C5.6713 11.4067 5.21111 11.6 4.66667 11.6ZM1.55556 16C1.12778 16 0.761704 15.8435 0.457333 15.5304C0.152963 15.2173 0.000518518 14.8405 0 14.4V3.2C0 2.76 0.152444 2.38347 0.457333 2.0704C0.762222 1.75733 1.1283 1.60053 1.55556 1.6H2.33333V0H3.88889V1.6H10.1111V0H11.6667V1.6H12.4444C12.8722 1.6 13.2386 1.7568 13.5434 2.0704C13.8483 2.384 14.0005 2.76053 14 3.2V14.4C14 14.84 13.8478 15.2168 13.5434 15.5304C13.2391 15.844 12.8727 16.0005 12.4444 16H1.55556ZM1.55556 14.4H12.4444V6.4H1.55556V14.4ZM1.55556 4.8H12.4444V3.2H1.55556V4.8Z" fill="#1BBF00"/>
</svg>
