<svg width="14" height="16" viewBox="0 0 14 16" fill="none" xmlns="http://www.w3.org/2000/svg">
<path d="M1.55556 16C1.12778 16 0.761704 15.8435 0.457333 15.5304C0.152963 15.2173 0.000518519 14.8405 0 14.4V3.2C0 2.76 0.152445 2.38347 0.457333 2.0704C0.762222 1.75733 1.1283 1.60053 1.55556 1.6H2.33333V0H3.88889V1.6H10.1111V0H11.6667V1.6H12.4444C12.8722 1.6 13.2386 1.7568 13.5434 2.0704C13.8483 2.384 14.0005 2.76053 14 3.2V14.4C14 14.84 13.8478 15.2168 13.5434 15.5304C13.2391 15.844 12.8727 16.0005 12.4444 16H1.55556ZM1.55556 14.4H12.4444V6.4H1.55556V14.4ZM1.55556 4.8H12.4444V3.2H1.55556V4.8Z" fill="#E42006"/>
<path d="M5.5625 8L6.12819 8.56569L3.29976 11.3941L2.73407 10.8284L5.5625 8Z" fill="#E42006"/>
<path d="M2.83984 8.61L3.40553 8.04431L6.23396 10.8727L5.66827 11.4384L2.83984 8.61Z" fill="#E42006"/>
</svg>
