<svg width="15" height="16" viewBox="0 0 15 16" fill="none" xmlns="http://www.w3.org/2000/svg">
<path d="M7.5 9.05L9.675 11.225C9.8125 11.3625 9.9875 11.4313 10.2 11.4313C10.4125 11.4313 10.5875 11.3625 10.725 11.225C10.8625 11.0875 10.9313 10.9125 10.9313 10.7C10.9313 10.4875 10.8625 10.3125 10.725 10.175L8.55 8L10.725 5.825C10.8625 5.6875 10.9313 5.5125 10.9313 5.3C10.9313 5.0875 10.8625 4.9125 10.725 4.775C10.5875 4.6375 10.4125 4.56875 10.2 4.56875C9.9875 4.56875 9.8125 4.6375 9.675 4.775L7.5 6.95L5.325 4.775C5.1875 4.6375 5.0125 4.56875 4.8 4.56875C4.5875 4.56875 4.4125 4.6375 4.275 4.775C4.1375 4.9125 4.06875 5.0875 4.06875 5.3C4.06875 5.5125 4.1375 5.6875 4.275 5.825L6.45 8L4.275 10.175C4.1375 10.3125 4.06875 10.4875 4.06875 10.7C4.06875 10.9125 4.1375 11.0875 4.275 11.225C4.4125 11.3625 4.5875 11.4313 4.8 11.4313C5.0125 11.4313 5.1875 11.3625 5.325 11.225L7.5 9.05ZM7.5 15.5C6.4625 15.5 5.4875 15.303 4.575 14.909C3.6625 14.515 2.86875 13.9808 2.19375 13.3063C1.51875 12.6318 0.984501 11.838 0.591001 10.925C0.197501 10.012 0.000500949 9.037 9.49367e-07 8C-0.000499051 6.963 0.196501 5.988 0.591001 5.075C0.985501 4.162 1.51975 3.36825 2.19375 2.69375C2.86775 2.01925 3.6615 1.485 4.575 1.091C5.4885 0.697 6.4635 0.5 7.5 0.5C8.5365 0.5 9.5115 0.697 10.425 1.091C11.3385 1.485 12.1323 2.01925 12.8063 2.69375C13.4803 3.36825 14.0148 4.162 14.4098 5.075C14.8048 5.988 15.0015 6.963 15 8C14.9985 9.037 14.8015 10.012 14.409 10.925C14.0165 11.838 13.4823 12.6318 12.8063 13.3063C12.1303 13.9808 11.3365 14.5152 10.425 14.9097C9.5135 15.3042 8.5385 15.501 7.5 15.5ZM7.5 14C9.175 14 10.5938 13.4187 11.7563 12.2562C12.9187 11.0937 13.5 9.675 13.5 8C13.5 6.325 12.9187 4.90625 11.7563 3.74375C10.5938 2.58125 9.175 2 7.5 2C5.825 2 4.40625 2.58125 3.24375 3.74375C2.08125 4.90625 1.5 6.325 1.5 8C1.5 9.675 2.08125 11.0937 3.24375 12.2562C4.40625 13.4187 5.825 14 7.5 14Z" fill="#FFF3F3"/>
</svg>
