<svg width="36" height="37" viewBox="0 0 36 37" fill="none" xmlns="http://www.w3.org/2000/svg">
<path fill-rule="evenodd" clip-rule="evenodd" d="M18 0.5625C8.09434 0.5625 0.0625 8.59434 0.0625 18.5C0.0625 28.4057 8.09434 36.4375 18 36.4375C27.9057 36.4375 35.9375 28.4057 35.9375 18.5C35.9375 8.59434 27.9057 0.5625 18 0.5625ZM12.8772 11.5663C12.8782 11.5666 12.8789 11.567 12.8806 11.5686L18 16.688L23.1194 11.5686C23.1211 11.567 23.1218 11.5666 23.1228 11.5663C23.1237 11.566 23.1246 11.566 23.1256 11.5663C23.1264 11.5666 23.1272 11.567 23.1288 11.5686L24.9314 13.3712C24.933 13.3728 24.9334 13.3736 24.9337 13.3745C24.934 13.3754 24.934 13.3764 24.9337 13.3773L24.9333 13.3782C24.9328 13.379 24.9321 13.3799 24.9314 13.3806L19.812 18.5L24.9314 23.6195C24.933 23.6211 24.9334 23.6219 24.9337 23.6228C24.934 23.6237 24.934 23.6247 24.9337 23.6256C24.9334 23.6265 24.933 23.6272 24.9314 23.6289L23.1288 25.4314C23.1272 25.433 23.1264 25.4334 23.1255 25.4338C23.1246 25.434 23.1236 25.434 23.1227 25.4338C23.1218 25.4335 23.1211 25.433 23.1194 25.4314L18 20.3119L12.8805 25.4314C12.8789 25.433 12.8781 25.4334 12.8772 25.4337C12.8763 25.434 12.8753 25.434 12.8744 25.4337C12.8735 25.4334 12.8728 25.433 12.8711 25.4314L11.0686 23.6288C11.067 23.6272 11.0666 23.6264 11.0662 23.6255C11.066 23.6246 11.066 23.6236 11.0662 23.6227L11.0666 23.6218C11.0672 23.621 11.0678 23.6201 11.0686 23.6194L16.1881 18.5L11.0686 13.3806C11.067 13.3789 11.0666 13.3782 11.0663 13.3772C11.066 13.3763 11.066 13.3754 11.0663 13.3744C11.0666 13.3736 11.067 13.3728 11.0686 13.3712L12.8712 11.5686C12.872 11.5676 12.8732 11.5668 12.8745 11.5663C12.8754 11.566 12.8763 11.566 12.8772 11.5663Z" fill="#0F0F0F" fill-opacity="0.9"/>
</svg>
