<svg width="21" height="20" viewBox="0 0 21 20" fill="none" xmlns="http://www.w3.org/2000/svg">
<path d="M12.25 20C10.45 20 8.91667 19.3667 7.65 18.1C6.38333 16.8333 5.75 15.3 5.75 13.5V12.925C4.31667 12.6917 3.125 12.0207 2.175 10.912C1.225 9.80333 0.75 8.49933 0.75 7V1H3.75V0H5.75V4H3.75V3H2.75V7C2.75 8.1 3.14167 9.04167 3.925 9.825C4.70833 10.6083 5.65 11 6.75 11C7.85 11 8.79167 10.6083 9.575 9.825C10.3583 9.04167 10.75 8.1 10.75 7V3H9.75V4H7.75V0H9.75V1H12.75V7C12.75 8.5 12.275 9.80433 11.325 10.913C10.375 12.0217 9.18333 12.6923 7.75 12.925V13.5C7.75 14.75 8.18767 15.8127 9.063 16.688C9.93833 17.5633 11.0007 18.0007 12.25 18C13.4993 17.9993 14.562 17.562 15.438 16.688C16.314 15.814 16.7513 14.7513 16.75 13.5V11.825C16.1667 11.625 15.6877 11.2667 15.313 10.75C14.9383 10.2333 14.7507 9.65 14.75 9C14.75 8.16667 15.0417 7.45833 15.625 6.875C16.2083 6.29167 16.9167 6 17.75 6C18.5833 6 19.2917 6.29167 19.875 6.875C20.4583 7.45833 20.75 8.16667 20.75 9C20.75 9.65 20.5627 10.2333 20.188 10.75C19.8133 11.2667 19.334 11.625 18.75 11.825V13.5C18.75 15.3 18.1167 16.8333 16.85 18.1C15.5833 19.3667 14.05 20 12.25 20ZM17.75 10C18.0333 10 18.271 9.904 18.463 9.712C18.655 9.52 18.7507 9.28267 18.75 9C18.7493 8.71733 18.6533 8.48 18.462 8.288C18.2707 8.096 18.0333 8 17.75 8C17.4667 8 17.2293 8.096 17.038 8.288C16.8467 8.48 16.7507 8.71733 16.75 9C16.7493 9.28267 16.8453 9.52033 17.038 9.713C17.2307 9.90567 17.468 10.0013 17.75 10Z" fill="#292929" fill-opacity="0.6"/>
</svg>
