<svg width="21" height="21" viewBox="0 0 21 21" fill="none" xmlns="http://www.w3.org/2000/svg">
<path d="M18.2987 8.54501C18.2987 8.38486 18.2671 8.22628 18.2058 8.07833C18.1445 7.93037 18.0547 7.79594 17.9415 7.68269C17.8282 7.56945 17.6938 7.47963 17.5458 7.41834C17.3979 7.35706 17.2393 7.32551 17.0792 7.32551C16.919 7.32551 16.7604 7.35706 16.6125 7.41834C16.4645 7.47963 16.3301 7.56945 16.2168 7.68269C16.1036 7.79594 16.0138 7.93037 15.9525 8.07833C15.8912 8.22628 15.8597 8.38486 15.8597 8.54501H18.2987ZM4.64033 8.54501C4.64033 8.22158 4.51185 7.9114 4.28315 7.68269C4.05445 7.45399 3.74427 7.32551 3.42084 7.32551C3.09741 7.32551 2.78723 7.45399 2.55853 7.68269C2.32983 7.9114 2.20135 8.22158 2.20135 8.54501H4.64033ZM18.1679 11.3586C18.3967 11.5874 18.7069 11.7159 19.0303 11.7159C19.3538 11.7159 19.664 11.5874 19.8928 11.3586C20.1215 11.1299 20.25 10.8197 20.25 10.4962C20.25 10.1727 20.1215 9.86251 19.8928 9.63378L18.1679 11.3586ZM10.25 1.71582L11.1124 0.85339C10.9992 0.740115 10.8647 0.650259 10.7168 0.588953C10.5688 0.527648 10.4102 0.496094 10.25 0.496094C10.0898 0.496094 9.93122 0.527648 9.78325 0.588953C9.63527 0.650259 9.50082 0.740115 9.38758 0.85339L10.25 1.71582ZM0.607228 9.63378C0.378499 9.86251 0.25 10.1727 0.25 10.4962C0.25 10.8197 0.378499 11.1299 0.607228 11.3586C0.835958 11.5874 1.14618 11.7159 1.46965 11.7159C1.79313 11.7159 2.10335 11.5874 2.33208 11.3586L0.607228 9.63378ZM5.37203 20.4961H15.128V18.0571H5.37203V20.4961ZM18.2987 17.3254V8.54501H15.8597V17.3254H18.2987ZM4.64033 17.3254V8.54501H2.20135V17.3254H4.64033ZM19.8928 9.63378L11.1124 0.85339L9.38758 2.57825L18.1679 11.3586L19.8928 9.63378ZM9.38758 0.85339L0.607228 9.63378L2.33208 11.3586L11.1124 2.57825L9.38758 0.85339ZM15.128 20.4961C15.9689 20.4961 16.7754 20.162 17.37 19.5674C17.9646 18.9728 18.2987 18.1663 18.2987 17.3254H15.8597C15.8597 17.5195 15.7826 17.7056 15.6454 17.8428C15.5081 17.98 15.322 18.0571 15.128 18.0571V20.4961ZM5.37203 18.0571C5.17797 18.0571 4.99186 17.98 4.85464 17.8428C4.71742 17.7056 4.64033 17.5195 4.64033 17.3254H2.20135C2.20135 18.1663 2.5354 18.9728 3.13002 19.5674C3.72464 20.162 4.53111 20.4961 5.37203 20.4961V18.0571Z" fill="#0566D3"/>
</svg>
