<svg width="21" height="20" viewBox="0 0 21 20" fill="none" xmlns="http://www.w3.org/2000/svg">
<path d="M18.2987 8.04892C18.2987 7.88877 18.2671 7.73019 18.2058 7.58223C18.1445 7.43428 18.0547 7.29984 17.9415 7.1866C17.8282 7.07336 17.6938 6.98353 17.5458 6.92225C17.3979 6.86096 17.2393 6.82942 17.0792 6.82942C16.919 6.82942 16.7604 6.86096 16.6125 6.92225C16.4645 6.98353 16.3301 7.07336 16.2168 7.1866C16.1036 7.29984 16.0138 7.43428 15.9525 7.58223C15.8912 7.73019 15.8597 7.88877 15.8597 8.04892H18.2987ZM4.64033 8.04892C4.64033 7.72549 4.51185 7.4153 4.28315 7.1866C4.05445 6.9579 3.74427 6.82942 3.42084 6.82942C3.09741 6.82942 2.78723 6.9579 2.55853 7.1866C2.32983 7.4153 2.20135 7.72549 2.20135 8.04892H4.64033ZM18.1679 10.8625C18.3967 11.0913 18.7069 11.2198 19.0303 11.2198C19.3538 11.2198 19.664 11.0913 19.8928 10.8625C20.1215 10.6338 20.25 10.3236 20.25 10.0001C20.25 9.67664 20.1215 9.36642 19.8928 9.13768L18.1679 10.8625ZM10.25 1.21973L11.1124 0.357296C10.9992 0.244021 10.8647 0.154165 10.7168 0.0928595C10.5688 0.0315539 10.4102 0 10.25 0C10.0898 0 9.93122 0.0315539 9.78325 0.0928595C9.63527 0.154165 9.50082 0.244021 9.38758 0.357296L10.25 1.21973ZM0.607228 9.13768C0.378499 9.36642 0.25 9.67664 0.25 10.0001C0.25 10.3236 0.378499 10.6338 0.607228 10.8625C0.835958 11.0913 1.14618 11.2198 1.46965 11.2198C1.79313 11.2198 2.10335 11.0913 2.33208 10.8625L0.607228 9.13768ZM5.37203 20H15.128V17.561H5.37203V20ZM18.2987 16.8293V8.04892H15.8597V16.8293H18.2987ZM4.64033 16.8293V8.04892H2.20135V16.8293H4.64033ZM19.8928 9.13768L11.1124 0.357296L9.38758 2.08215L18.1679 10.8625L19.8928 9.13768ZM9.38758 0.357296L0.607228 9.13768L2.33208 10.8625L11.1124 2.08215L9.38758 0.357296ZM15.128 20C15.9689 20 16.7754 19.6659 17.37 19.0713C17.9646 18.4767 18.2987 17.6702 18.2987 16.8293H15.8597C15.8597 17.0234 15.7826 17.2095 15.6454 17.3467C15.5081 17.4839 15.322 17.561 15.128 17.561V20ZM5.37203 17.561C5.17797 17.561 4.99186 17.4839 4.85464 17.3467C4.71742 17.2095 4.64033 17.0234 4.64033 16.8293H2.20135C2.20135 17.6702 2.5354 18.4767 3.13002 19.0713C3.72464 19.6659 4.53111 20 5.37203 20V17.561Z" fill="#292929" fill-opacity="0.6"/>
</svg>
