<svg width="21" height="21" viewBox="0 0 21 21" fill="none" xmlns="http://www.w3.org/2000/svg">
<path fill-rule="evenodd" clip-rule="evenodd" d="M0.249023 1.44851C0.249023 0.922506 0.675435 0.496094 1.20144 0.496094H14.5353C15.0613 0.496094 15.4877 0.922506 15.4877 1.44851V19.5444C15.4877 20.0705 15.0613 20.4969 14.5353 20.4969H1.20144C0.675435 20.4969 0.249023 20.0705 0.249023 19.5444V1.44851ZM2.15386 2.40093V18.592H13.5829V2.40093H2.15386Z" fill="#292929" fill-opacity="0.6"/>
<path fill-rule="evenodd" clip-rule="evenodd" d="M13.5829 9.06785C13.5829 8.54185 14.0093 8.11544 14.5353 8.11544H19.2974C19.8234 8.11544 20.2498 8.54185 20.2498 9.06785V19.5444C20.2498 20.0705 19.8234 20.4969 19.2974 20.4969L14.5353 20.4969C14.0093 20.4969 13.5829 20.0705 13.5829 19.5444C13.5829 19.0184 14.0093 18.592 14.5353 18.592H18.345V10.0203H14.5353C14.0093 10.0203 13.5829 9.59386 13.5829 9.06785Z" fill="#292929" fill-opacity="0.6"/>
<path fill-rule="evenodd" clip-rule="evenodd" d="M7.86836 5.25818C8.39437 5.25818 8.82078 5.68459 8.82078 6.2106V8.11544H10.7256C11.2516 8.11544 11.678 8.54185 11.678 9.06785C11.678 9.59386 11.2516 10.0203 10.7256 10.0203H8.82078V11.9251C8.82078 12.4511 8.39437 12.8775 7.86836 12.8775C7.34236 12.8775 6.91595 12.4511 6.91595 11.9251V10.0203H5.01111C4.48511 10.0203 4.05869 9.59386 4.05869 9.06785C4.05869 8.54185 4.48511 8.11544 5.01111 8.11544H6.91595V6.2106C6.91595 5.68459 7.34236 5.25818 7.86836 5.25818Z" fill="#292929" fill-opacity="0.6"/>
</svg>
