<svg width="21" height="20" viewBox="0 0 21 20" fill="none" xmlns="http://www.w3.org/2000/svg">
<path fill-rule="evenodd" clip-rule="evenodd" d="M0.249023 0.952418C0.249023 0.426412 0.675435 0 1.20144 0H14.5353C15.0613 0 15.4877 0.426412 15.4877 0.952418V19.0484C15.4877 19.5744 15.0613 20.0008 14.5353 20.0008H1.20144C0.675435 20.0008 0.249023 19.5744 0.249023 19.0484V0.952418ZM2.15386 1.90484V18.0959H13.5829V1.90484H2.15386Z" fill="#0566D3"/>
<path fill-rule="evenodd" clip-rule="evenodd" d="M13.5829 8.57176C13.5829 8.04575 14.0093 7.61934 14.5353 7.61934H19.2974C19.8234 7.61934 20.2498 8.04575 20.2498 8.57176V19.0484C20.2498 19.5744 19.8234 20.0008 19.2974 20.0008L14.5353 20.0008C14.0093 20.0008 13.5829 19.5744 13.5829 19.0484C13.5829 18.5223 14.0093 18.0959 14.5353 18.0959H18.345V9.52418H14.5353C14.0093 9.52418 13.5829 9.09776 13.5829 8.57176Z" fill="#0566D3"/>
<path fill-rule="evenodd" clip-rule="evenodd" d="M7.86836 4.76209C8.39437 4.76209 8.82078 5.1885 8.82078 5.71451V7.61934H10.7256C11.2516 7.61934 11.678 8.04575 11.678 8.57176C11.678 9.09776 11.2516 9.52418 10.7256 9.52418H8.82078V11.429C8.82078 11.955 8.39437 12.3814 7.86836 12.3814C7.34236 12.3814 6.91595 11.955 6.91595 11.429V9.52418H5.01111C4.48511 9.52418 4.05869 9.09776 4.05869 8.57176C4.05869 8.04575 4.48511 7.61934 5.01111 7.61934H6.91595V5.71451C6.91595 5.1885 7.34236 4.76209 7.86836 4.76209Z" fill="#0566D3"/>
</svg>
