<svg width="28" height="34" viewBox="0 0 28 34" fill="none" xmlns="http://www.w3.org/2000/svg">
<path d="M22.0381 25.8208C19.4763 28.7664 16.6538 30.9079 15.5712 31.6849L22.0381 25.8208ZM22.0381 25.8208C24.577 22.9017 27 19.0335 27 14.8184M22.0381 25.8208L27 14.8184M27 14.8184C27 7.63865 21.1798 1.81836 14 1.81836C6.82029 1.81836 1 7.63865 1 14.8184C1 19.0335 3.42302 22.9017 5.96185 25.8208M27 14.8184L5.96185 25.8208M5.96185 25.8208C8.52373 28.7664 11.3462 30.9079 12.4288 31.6849L5.96185 25.8208ZM14 32.182C14.5481 32.182 15.099 32.0239 15.5709 31.685H12.4291C12.901 32.0239 13.4519 32.182 14 32.182Z" stroke="white" stroke-width="2" stroke-linecap="round" stroke-linejoin="round"/>
<path d="M8.63135 13.7274C8.63135 15.1499 9.19644 16.5142 10.2023 17.5201C11.2082 18.5259 12.5725 19.091 13.995 19.091C15.4175 19.091 16.7818 18.5259 17.7876 17.5201C18.7935 16.5142 19.3586 15.1499 19.3586 13.7274C19.3586 12.3049 18.7935 10.9406 17.7876 9.93474C16.7818 8.92886 15.4175 8.36377 13.995 8.36377C12.5725 8.36377 11.2082 8.92886 10.2023 9.93474C9.19644 10.9406 8.63135 12.3049 8.63135 13.7274Z" stroke="white" stroke-width="2" stroke-linecap="round" stroke-linejoin="round"/>
</svg>
