<svg width="16" height="20" viewBox="0 0 16 20" fill="none" xmlns="http://www.w3.org/2000/svg">
<path fill-rule="evenodd" clip-rule="evenodd" d="M0.47911 0.146377C0.776684 -0.0352055 1.14734 -0.0487187 1.45735 0.110713L2.75 0.775505L4.04265 0.110713C4.32968 -0.0369034 4.67032 -0.0369034 4.95735 0.110713L6.25 0.775505L7.54265 0.110713C7.82968 -0.0369034 8.17032 -0.0369034 8.45735 0.110713L9.75 0.775505L11.0427 0.110713C11.3297 -0.0369034 11.6703 -0.0369034 11.9573 0.110713L13.25 0.775505L14.5427 0.110713C14.8527 -0.0487187 15.2233 -0.0352055 15.5209 0.146377C15.8185 0.327959 16 0.651401 16 1V19C16 19.3486 15.8185 19.672 15.5209 19.8536C15.2233 20.0352 14.8527 20.0487 14.5427 19.8893L13.25 19.2245L11.9573 19.8893C11.6703 20.0369 11.3297 20.0369 11.0427 19.8893L9.75 19.2245L8.45735 19.8893C8.17032 20.0369 7.82968 20.0369 7.54265 19.8893L6.25 19.2245L4.95735 19.8893C4.67032 20.0369 4.32968 20.0369 4.04265 19.8893L2.75 19.2245L1.45735 19.8893C1.14734 20.0487 0.776684 20.0352 0.47911 19.8536C0.181537 19.672 0 19.3486 0 19V1C0 0.651401 0.181537 0.327959 0.47911 0.146377ZM2 2.63878V17.3612L2.29265 17.2107C2.57968 17.0631 2.92032 17.0631 3.20735 17.2107L4.5 17.8755L5.79265 17.2107C6.07968 17.0631 6.42032 17.0631 6.70735 17.2107L8 17.8755L9.29265 17.2107C9.57968 17.0631 9.92032 17.0631 10.2073 17.2107L11.5 17.8755L12.7927 17.2107C13.0797 17.0631 13.4203 17.0631 13.7073 17.2107L14 17.3612V2.63878L13.7073 2.78929C13.4203 2.9369 13.0797 2.9369 12.7927 2.78929L11.5 2.1245L10.2073 2.78929C9.92032 2.9369 9.57968 2.9369 9.29265 2.78929L8 2.1245L6.70735 2.78929C6.42032 2.9369 6.07968 2.9369 5.79265 2.78929L4.5 2.1245L3.20735 2.78929C2.92032 2.9369 2.57968 2.9369 2.29265 2.78929L2 2.63878Z" fill="black"/>
<path d="M5 5.88333H7.0445C7.9595 5.88333 8.6345 6.3625 8.78825 7.32H5V8.19583H8.78825C8.64125 9.1675 8 9.63167 7.091 9.63167H5V10.7292L8.32775 15H9.91025L6.57125 10.7367H7.2125C8.9495 10.7217 9.81125 9.50667 9.9785 8.19583H11V7.32H9.99125C9.93125 6.67167 9.7235 6.2075 9.3965 5.87667H11V5H5V5.88333Z" fill="black"/>
</svg>
