<svg width="16" height="24" viewBox="0 0 16 24" fill="none" xmlns="http://www.w3.org/2000/svg">
<path fill-rule="evenodd" clip-rule="evenodd" d="M12.75 5.75C12.75 7.07608 12.2232 8.34785 11.2855 9.28553C10.3479 10.2232 9.07608 10.75 7.75 10.75C6.42392 10.75 5.15215 10.2232 4.21447 9.28553C3.27678 8.34785 2.75 7.07608 2.75 5.75C2.75 4.42392 3.27678 3.15215 4.21447 2.21447C5.15215 1.27678 6.42392 0.75 7.75 0.75C9.07608 0.75 10.3479 1.27678 11.2855 2.21447C12.2232 3.15215 12.75 4.42392 12.75 5.75ZM10.25 5.75C10.25 6.41304 9.98661 7.04893 9.51777 7.51777C9.04893 7.98661 8.41304 8.25 7.75 8.25C7.08696 8.25 6.45107 7.98661 5.98223 7.51777C5.51339 7.04893 5.25 6.41304 5.25 5.75C5.25 5.08696 5.51339 4.45107 5.98223 3.98223C6.45107 3.51339 7.08696 3.25 7.75 3.25C8.41304 3.25 9.04893 3.51339 9.51777 3.98223C9.98661 4.45107 10.25 5.08696 10.25 5.75Z" fill="#0566D3"/>
<path d="M12.75 15.75C12.75 15.4185 12.6183 15.1005 12.3839 14.8661C12.1495 14.6317 11.8315 14.5 11.5 14.5H4C3.66848 14.5 3.35054 14.6317 3.11612 14.8661C2.8817 15.1005 2.75 15.4185 2.75 15.75V23.25H0.25V15.75C0.25 14.7554 0.645088 13.8016 1.34835 13.0983C2.05161 12.3951 3.00544 12 4 12H11.5C12.4946 12 13.4484 12.3951 14.1517 13.0983C14.8549 13.8016 15.25 14.7554 15.25 15.75V23.25H12.75V15.75Z" fill="#0566D3"/>
</svg>
