<svg width="15" height="14" viewBox="0 0 15 14" fill="none" xmlns="http://www.w3.org/2000/svg">
<path d="M7.5 13.75C5.775 13.75 4.272 13.1782 2.991 12.0347C1.71 10.8912 0.9755 9.463 0.7875 7.75H2.325C2.5 9.05 3.07825 10.125 4.05975 10.975C5.04125 11.825 6.188 12.25 7.5 12.25C8.9625 12.25 10.2032 11.7407 11.2222 10.7222C12.2412 9.70375 12.7505 8.463 12.75 7C12.7495 5.537 12.2402 4.2965 11.2222 3.2785C10.2042 2.2605 8.9635 1.751 7.5 1.75C6.6375 1.75 5.83125 1.95 5.08125 2.35C4.33125 2.75 3.7 3.3 3.1875 4H5.25V5.5H0.75V1H2.25V2.7625C2.8875 1.9625 3.66575 1.34375 4.58475 0.90625C5.50375 0.46875 6.4755 0.25 7.5 0.25C8.4375 0.25 9.31575 0.42825 10.1347 0.78475C10.9537 1.14125 11.6663 1.62225 12.2723 2.22775C12.8783 2.83325 13.3595 3.54575 13.716 4.36525C14.0725 5.18475 14.2505 6.063 14.25 7C14.2495 7.937 14.0715 8.81525 13.716 9.63475C13.3605 10.4542 12.8793 11.1668 12.2723 11.7723C11.6653 12.3778 10.9527 12.859 10.1347 13.216C9.31675 13.573 8.4385 13.751 7.5 13.75ZM9.6 10.15L6.75 7.3V3.25H8.25V6.7L10.65 9.1L9.6 10.15Z" fill="#F27400"/>
</svg>
