<svg width="10" height="16" viewBox="0 0 10 16" fill="none" xmlns="http://www.w3.org/2000/svg">
<path d="M10 3.88636V5.04545C10 5.15152 9.96659 5.23864 9.89978 5.30682C9.83296 5.375 9.74759 5.40909 9.64365 5.40909H7.77283C7.60208 6.5 7.12324 7.38636 6.3363 8.06818C5.54937 8.75 4.52487 9.16667 3.26281 9.31818C4.5026 10.6667 6.20638 12.697 8.37416 15.4091C8.4781 15.5303 8.49295 15.6591 8.41871 15.7955C8.35932 15.9318 8.25167 16 8.09577 16H5.92428C5.80549 16 5.7127 15.9545 5.64588 15.8636C3.37416 13.0833 1.52561 10.9205 0.100223 9.375C0.0334076 9.30682 0 9.22348 0 9.125V7.68182C0 7.58333 0.0352635 7.49811 0.105791 7.42614C0.176318 7.35417 0.259837 7.31818 0.356347 7.31818H1.60356C2.58352 7.31818 3.37231 7.1553 3.96993 6.82955C4.56756 6.50379 4.94803 6.0303 5.11136 5.40909H0.356347C0.252413 5.40909 0.167038 5.375 0.100223 5.30682C0.0334076 5.23864 0 5.15152 0 5.04545V3.88636C0 3.7803 0.0334076 3.69318 0.100223 3.625C0.167038 3.55682 0.252413 3.52273 0.356347 3.52273H4.95546C4.53229 2.66667 3.53749 2.23864 1.97105 2.23864H0.356347C0.259837 2.23864 0.176318 2.20265 0.105791 2.13068C0.0352635 2.05871 0 1.97348 0 1.875V0.363636C0 0.257576 0.0334076 0.170455 0.100223 0.102273C0.167038 0.0340909 0.252413 0 0.356347 0H9.62138C9.72532 0 9.81069 0.0340909 9.87751 0.102273C9.94432 0.170455 9.97773 0.257576 9.97773 0.363636V1.52273C9.97773 1.62879 9.94432 1.71591 9.87751 1.78409C9.81069 1.85227 9.72532 1.88636 9.62138 1.88636H7.02673C7.37565 2.34848 7.61321 2.89394 7.73942 3.52273H9.64365C9.74759 3.52273 9.83296 3.55682 9.89978 3.625C9.96659 3.69318 10 3.7803 10 3.88636Z" fill="white"/>
</svg>
