<svg width="8" height="12" viewBox="0 0 8 12" fill="none" xmlns="http://www.w3.org/2000/svg">
<path d="M8 2.91477V3.78409C8 3.86364 7.97327 3.92898 7.91982 3.98011C7.86637 4.03125 7.79807 4.05682 7.71492 4.05682H6.21826C6.08166 4.875 5.69859 5.53977 5.06904 6.05114C4.4395 6.5625 3.6199 6.875 2.61024 6.98864C3.60208 8 4.96511 9.52273 6.69933 11.5568C6.78248 11.6477 6.79436 11.7443 6.73497 11.8466C6.68745 11.9489 6.60134 12 6.47661 12H4.73942C4.64439 12 4.57016 11.9659 4.5167 11.8977C2.69933 9.8125 1.22049 8.19034 0.0801782 7.03125C0.0267261 6.98011 0 6.91761 0 6.84375V5.76136C0 5.6875 0.0282108 5.62358 0.0846325 5.5696C0.141054 5.51562 0.207869 5.48864 0.285078 5.48864H1.28285C2.06682 5.48864 2.69785 5.36648 3.17595 5.12216C3.65405 4.87784 3.95843 4.52273 4.08909 4.05682H0.285078C0.20193 4.05682 0.13363 4.03125 0.0801782 3.98011C0.0267261 3.92898 0 3.86364 0 3.78409V2.91477C0 2.83523 0.0267261 2.76989 0.0801782 2.71875C0.13363 2.66761 0.20193 2.64205 0.285078 2.64205H3.96437C3.62584 2 2.82999 1.67898 1.57684 1.67898H0.285078C0.207869 1.67898 0.141054 1.65199 0.0846325 1.59801C0.0282108 1.54403 0 1.48011 0 1.40625V0.272727C0 0.193182 0.0267261 0.127841 0.0801782 0.0767045C0.13363 0.0255682 0.20193 0 0.285078 0H7.6971C7.78025 0 7.84855 0.0255682 7.902 0.0767045C7.95546 0.127841 7.98218 0.193182 7.98218 0.272727V1.14205C7.98218 1.22159 7.95546 1.28693 7.902 1.33807C7.84855 1.3892 7.78025 1.41477 7.6971 1.41477H5.62138C5.90052 1.76136 6.09057 2.17045 6.19154 2.64205H7.71492C7.79807 2.64205 7.86637 2.66761 7.91982 2.71875C7.97327 2.76989 8 2.83523 8 2.91477Z" fill="#494949"/>
</svg>
